<svg width="60" height="40" viewBox="0 0 60 40" fill="none" xmlns="http://www.w3.org/2000/svg">
<rect x="1.23053" width="58.1432" height="40" rx="4" fill="#F8FAFB"/>
<path d="M25.0911 27.0895C28.9285 27.0895 32.0394 23.9046 32.0394 19.9757C32.0394 16.0469 28.9285 12.862 25.0911 12.862C21.2536 12.862 18.1428 16.0469 18.1428 19.9757C18.1428 23.9046 21.2536 27.0895 25.0911 27.0895Z" fill="#EE0005"/>
<path d="M33.7237 27.0895C37.5611 27.0895 40.672 23.9046 40.672 19.9757C40.672 16.0469 37.5611 12.862 33.7237 12.862C29.8863 12.862 26.7754 16.0469 26.7754 19.9757C26.7754 23.9046 29.8863 27.0895 33.7237 27.0895Z" fill="#F9A000"/>
<path d="M26.7755 19.9756C26.7755 22.2344 27.8039 24.2471 29.4073 25.5501C31.0107 24.247 32.0392 22.2344 32.0392 19.9756C32.0392 17.7169 31.0108 15.7042 29.4073 14.4011C27.804 15.7043 26.7755 17.7169 26.7755 19.9756Z" fill="#FF6300"/>
</svg>
