<svg width="60" height="40" viewBox="0 0 60 40" fill="none" xmlns="http://www.w3.org/2000/svg">
<rect opacity="0.1" width="60" height="40" rx="4" fill="#FF2B2B"/>
<path d="M26.6602 14.0977C27.4336 13.3242 28.3594 12.9375 29.4375 12.9375C30.5156 12.9375 31.4414 13.3242 32.2148 14.0977C32.9883 14.8711 33.375 15.7969 33.375 16.875V18.4922C34.5 19.5938 35.0625 20.9297 35.0625 22.5C35.0625 24.0469 34.5117 25.3711 33.4102 26.4727C32.3086 27.5742 30.9844 28.125 29.4375 28.125C27.8906 28.125 26.5664 27.5742 25.4648 26.4727C24.3633 25.3711 23.8125 24.0469 23.8125 22.5C23.8125 20.9297 24.375 19.5938 25.5 18.4922V16.875C25.5 15.7969 25.8867 14.8711 26.6602 14.0977ZM31.4062 14.9062C30.8672 14.3438 30.2109 14.0625 29.4375 14.0625C28.6641 14.0625 27.9961 14.3438 27.4336 14.9062C26.8945 15.4453 26.625 16.1016 26.625 16.875V17.6484C27.5156 17.1328 28.4531 16.875 29.4375 16.875C30.4219 16.875 31.3594 17.1328 32.25 17.6484V16.875C32.25 16.1016 31.9688 15.4453 31.4062 14.9062ZM32.6016 19.3359C31.7344 18.4453 30.6797 18 29.4375 18C28.1953 18 27.1289 18.4453 26.2383 19.3359C25.3711 20.2031 24.9375 21.2578 24.9375 22.5C24.9375 23.7422 25.3711 24.8086 26.2383 25.6992C27.1289 26.5664 28.1953 27 29.4375 27C30.6797 27 31.7344 26.5664 32.6016 25.6992C33.4922 24.8086 33.9375 23.7422 33.9375 22.5C33.9375 21.2578 33.4922 20.2031 32.6016 19.3359ZM28.6289 21.7266C28.8633 21.4922 29.1328 21.375 29.4375 21.375C29.7422 21.375 30 21.4922 30.2109 21.7266C30.4453 21.9375 30.5625 22.1953 30.5625 22.5C30.5625 22.9219 30.375 23.25 30 23.4844V25.3125H28.875V23.4844C28.5 23.25 28.3125 22.9219 28.3125 22.5C28.3125 22.1953 28.418 21.9375 28.6289 21.7266Z" fill="#FF2B2B"/>
</svg>
