<svg width="60" height="40" viewBox="0 0 60 40" fill="none" xmlns="http://www.w3.org/2000/svg">
<rect x="1.23053" width="58.1432" height="40" rx="4" fill="#F8FAFB"/>
<path d="M24.8753 24.6416L26.8084 13.4208H29.8288L27.9562 24.6416H24.8753Z" fill="#3C58BF"/>
<path d="M24.8753 24.6416L27.3521 13.4208H29.8288L27.9562 24.6416H24.8753Z" fill="#293688"/>
<path d="M38.8902 13.5455C38.2861 13.2961 37.3196 13.0468 36.1114 13.0468C33.091 13.0468 30.9163 14.6052 30.9163 16.8494C30.9163 18.5325 32.4265 19.4052 33.6347 19.9662C34.8428 20.5273 35.2053 20.9013 35.2053 21.4C35.2053 22.1481 34.2388 22.5221 33.393 22.5221C32.1849 22.5221 31.5204 22.3351 30.4934 21.8987L30.0706 21.7117L29.6477 24.2675C30.3726 24.5792 31.7016 24.8909 33.091 24.8909C36.2926 24.8909 38.4069 23.3325 38.4069 20.9636C38.4069 19.6545 37.6216 18.6571 35.8094 17.8468C34.722 17.2857 34.0575 16.974 34.0575 16.413C34.0575 15.9143 34.6012 15.4156 35.8094 15.4156C36.8363 15.4156 37.5612 15.6026 38.1049 15.8519L38.4069 15.9766L38.8902 13.5455Z" fill="#3C58BF"/>
<path d="M38.8902 13.5455C38.2861 13.2961 37.3196 13.0468 36.1114 13.0468C33.091 13.0468 31.46 14.6052 31.46 16.8494C31.46 18.5325 32.4265 19.4052 33.6347 19.9662C34.8428 20.5273 35.2053 20.9013 35.2053 21.4C35.2053 22.1481 34.2388 22.5221 33.393 22.5221C32.1849 22.5221 31.5204 22.3351 30.4934 21.8987L30.0706 21.7117L29.6477 24.2675C30.3726 24.5792 31.7016 24.8909 33.091 24.8909C36.2926 24.8909 38.4069 23.3325 38.4069 20.9636C38.4069 19.6545 37.6216 18.6571 35.8094 17.8468C34.722 17.2857 34.0575 16.974 34.0575 16.413C34.0575 15.9143 34.6012 15.4156 35.8094 15.4156C36.8363 15.4156 37.5612 15.6026 38.1049 15.8519L38.4069 15.9766L38.8902 13.5455Z" fill="#293688"/>
<path fill-rule="evenodd" clip-rule="evenodd" d="M42.5146 14.2312C42.8167 13.4831 43.3603 13.4208 44.0852 13.4208H46.4412L48.9783 24.6416H46.0787L45.7163 22.7714H41.8501L41.246 24.6416H37.984L42.5146 14.2312ZM43.9041 17.5974C43.9041 17.5974 42.8771 20.3403 42.6959 20.9013V20.9636H45.233C45.1122 20.3403 44.5081 17.5351 44.5081 17.5351L44.3269 16.4753C44.1457 16.9117 43.9041 17.5974 43.9041 17.5974Z" fill="#3C58BF"/>
<path fill-rule="evenodd" clip-rule="evenodd" d="M43.2395 14.2312C43.5416 13.4831 44.0852 13.4208 44.8101 13.4208H46.4412L48.9783 24.6416H46.0787L45.7163 22.7714H41.8501L41.246 24.6416H37.984L43.2395 14.2312ZM43.9041 17.5974C43.9041 17.5974 42.9375 20.2779 42.6959 20.9013V20.9636H45.233C45.1122 20.3403 44.5081 17.5351 44.5081 17.5351L44.3269 16.4753C44.1457 16.9117 43.9041 17.5974 43.9041 17.5974Z" fill="#293688"/>
<path d="M19.3177 21.2753L19.0157 19.6546C18.472 17.7844 16.7202 15.7273 14.7871 14.7299L17.5055 24.7039H20.7675L25.6606 13.4831H22.3986L19.3177 21.2753Z" fill="#3C58BF"/>
<path d="M19.3177 21.2753L19.0157 19.6546C18.472 17.7844 16.7202 15.7273 14.7871 14.7299L17.5055 24.7039H20.7675L25.6606 13.4831H23.0026L19.3177 21.2753Z" fill="#293688"/>
<path d="M10.921 13.4208L11.4647 13.5455C15.3308 14.4805 17.9888 16.8493 19.0158 19.6545L17.9284 14.3558C17.7472 13.6078 17.2035 13.4208 16.539 13.4208H10.921V13.4208Z" fill="#FFBC00"/>
<path d="M10.921 13.4208C14.7872 14.3558 17.9888 16.787 19.0158 19.5922L17.9888 15.1662C17.8076 14.4182 17.2035 13.9818 16.539 13.9818L10.921 13.4208Z" fill="#F7981D"/>
<path d="M10.921 13.4208C14.7872 14.3558 17.9888 16.787 19.0158 19.5922L18.2909 17.161C18.1096 16.413 17.868 15.6649 17.0223 15.3532L10.921 13.4208Z" fill="#ED7C00"/>
<path d="M22.3382 20.9013L20.2843 18.7818L19.3178 21.1506L19.0761 19.5922C18.5325 17.7221 16.7806 15.6649 14.8475 14.6675L17.5659 24.6415H20.828L22.3382 20.9013Z" fill="#051244"/>
<path d="M27.9561 24.6415L25.3586 21.8987L24.8753 24.6415H27.9561Z" fill="#051244"/>
<path d="M34.9032 20.7766C35.1449 21.026 35.2657 21.213 35.2053 21.4623C35.2053 22.2104 34.2388 22.5844 33.393 22.5844C32.1849 22.5844 31.5204 22.3974 30.4934 21.961L30.0706 21.774L29.6477 24.3299C30.3726 24.6415 31.7016 24.9532 33.091 24.9532C35.0241 24.9532 36.5947 24.3922 37.5008 23.3948L34.9032 20.7766Z" fill="#051244"/>
<path d="M38.4069 24.6415H41.2461L41.8502 22.7714H45.7163L46.0788 24.6415H48.9784L47.9514 20.0909L44.3269 16.4753L44.5081 17.4727C44.5081 17.4727 45.1122 20.2779 45.2331 20.9013H42.6959C42.9375 20.2779 43.9041 17.5974 43.9041 17.5974C43.9041 17.5974 44.1457 16.9117 44.3269 16.4753" fill="#051244"/>
</svg>
