<svg width="20" height="16" viewBox="0 0 20 16" fill="none" xmlns="http://www.w3.org/2000/svg">
<path d="M2.4375 0.1875H14.8125C15.3854 0.1875 15.8724 0.388021 16.2734 0.789062C16.6745 1.1901 16.875 1.67708 16.875 2.25V2.9375H17.5625C18.1354 2.9375 18.6224 3.13802 19.0234 3.53906C19.4245 3.9401 19.625 4.42708 19.625 5V13.25C19.625 13.8229 19.4245 14.3099 19.0234 14.7109C18.6224 15.112 18.1354 15.3125 17.5625 15.3125H5.1875C4.61458 15.3125 4.1276 15.112 3.72656 14.7109C3.32552 14.3099 3.125 13.8229 3.125 13.25V12.5625H2.4375C1.86458 12.5625 1.3776 12.362 0.976562 11.9609C0.575521 11.5599 0.375 11.0729 0.375 10.5V2.25C0.375 1.67708 0.575521 1.1901 0.976562 0.789062C1.3776 0.388021 1.86458 0.1875 2.4375 0.1875ZM2.4375 1.5625C1.97917 1.5625 1.75 1.79167 1.75 2.25V10.5C1.75 10.9583 1.97917 11.1875 2.4375 11.1875H14.8125C15.2708 11.1875 15.5 10.9583 15.5 10.5V4.3125H2.4375V2.9375H15.5V2.25C15.5 1.79167 15.2708 1.5625 14.8125 1.5625H2.4375ZM16.875 4.3125V5.6875H18.25V5C18.25 4.54167 18.0208 4.3125 17.5625 4.3125H16.875ZM16.875 7.0625V10.5C16.875 11.0729 16.6745 11.5599 16.2734 11.9609C15.8724 12.362 15.3854 12.5625 14.8125 12.5625H4.5V13.25C4.5 13.7083 4.72917 13.9375 5.1875 13.9375H17.5625C18.0208 13.9375 18.25 13.7083 18.25 13.25V7.0625H16.875Z" fill="#778CA2"/>
</svg>
