<svg width="18" height="17" viewBox="0 0 18 17" fill="none" xmlns="http://www.w3.org/2000/svg">
<path d="M17.25 0.542969V1.96094V5.91406V7.375V8.75V16.3125V17H16.5625H1.4375H0.75V16.3125V11.5V10.125V9.09375V6V5.14062L1.56641 5.3125L4.70312 5.95703L8.61328 3.33594L8.82812 3.20703L9.08594 3.25L12.9531 3.89453L16.1328 1.40234L17.25 0.542969ZM15.875 3.33594L13.5547 5.14062L13.2969 5.35547L13.0391 5.3125L9.17188 4.66797L5.26172 7.28906L5.04688 7.41797L4.74609 7.375L2.125 6.85938V9.65234L4.78906 10.7266L8.61328 8.14844L8.91406 7.97656L9.21484 8.10547L12.9531 9.35156L15.875 7.03125V3.33594ZM15.875 8.83594L13.5547 10.6406L13.2539 10.8984L12.9102 10.7695L9.12891 9.52344L5.26172 12.1016L4.96094 12.2734L4.61719 12.1445L2.125 11.1562V11.5V15.625H15.875V8.83594Z" fill="#778CA2"/>
</svg>
