<svg width="21" height="21" viewBox="0 0 21 21" fill="none" xmlns="http://www.w3.org/2000/svg">
<path d="M9.625 5.875H11V21H9.625V5.875ZM3.99609 1.62109C3.58073 2.03646 3.20833 2.49121 2.87891 2.98535C2.55664 3.47233 2.28451 3.98438 2.0625 4.52148C1.84049 5.05859 1.66862 5.61719 1.54688 6.19727C1.43229 6.77018 1.375 7.35026 1.375 7.9375C1.375 8.52474 1.43229 9.1084 1.54688 9.68848C1.66862 10.2614 1.84049 10.8164 2.0625 11.3535C2.28451 11.8906 2.55664 12.4062 2.87891 12.9004C3.20833 13.3874 3.58073 13.8385 3.99609 14.2539L3.01855 15.2314C2.0446 14.2503 1.29622 13.1367 0.773438 11.8906C0.257812 10.6374 0 9.31966 0 7.9375C0 6.55534 0.257812 5.24121 0.773438 3.99512C1.29622 2.74186 2.0446 1.62467 3.01855 0.643555L3.99609 1.62109ZM17.6064 0.643555C18.5804 1.62467 19.3252 2.74186 19.8408 3.99512C20.3636 5.24121 20.625 6.55534 20.625 7.9375C20.625 9.31966 20.3636 10.6374 19.8408 11.8906C19.3252 13.1367 18.5804 14.2503 17.6064 15.2314L16.6289 14.2539C17.0443 13.8385 17.4131 13.3874 17.7354 12.9004C18.0648 12.4062 18.3405 11.8906 18.5625 11.3535C18.7845 10.8164 18.9528 10.2614 19.0674 9.68848C19.1891 9.1084 19.25 8.52474 19.25 7.9375C19.25 7.35026 19.1891 6.77018 19.0674 6.19727C18.9528 5.61719 18.7845 5.05859 18.5625 4.52148C18.3405 3.98438 18.0648 3.47233 17.7354 2.98535C17.4131 2.49121 17.0443 2.03646 16.6289 1.62109L17.6064 0.643555ZM14.6846 3.56543C15.2646 4.14551 15.7122 4.8151 16.0273 5.57422C16.3424 6.32617 16.5 7.11393 16.5 7.9375C16.5 8.76107 16.3424 9.55241 16.0273 10.3115C15.7122 11.0635 15.2646 11.7295 14.6846 12.3096L13.7178 11.3428C14.1689 10.8916 14.5127 10.3724 14.749 9.78516C14.9925 9.19076 15.1143 8.57487 15.1143 7.9375C15.1143 7.30013 14.9925 6.68783 14.749 6.10059C14.5127 5.50618 14.1689 4.9834 13.7178 4.53223L14.6846 3.56543ZM6.90723 4.53223C6.45605 4.9834 6.10872 5.50618 5.86523 6.10059C5.62174 6.68783 5.5 7.30013 5.5 7.9375C5.5 8.57487 5.62174 9.19076 5.86523 9.78516C6.10872 10.3724 6.45605 10.8916 6.90723 11.3428L5.94043 12.3096C5.36035 11.7295 4.91276 11.0635 4.59766 10.3115C4.28255 9.55241 4.125 8.76107 4.125 7.9375C4.125 7.11393 4.28255 6.32617 4.59766 5.57422C4.91276 4.8151 5.36035 4.14551 5.94043 3.56543L6.90723 4.53223Z" fill="#778CA2"/>
</svg>
