<svg width="18" height="17" viewBox="0 0 18 17" fill="none" xmlns="http://www.w3.org/2000/svg">
<path d="M7.32422 1.41406C7.8112 1.01302 8.36979 0.8125 9 0.8125C9.63021 0.8125 10.1888 1.01302 10.6758 1.41406C11.1628 1.78646 11.4922 2.27344 11.6641 2.875H17.25H17.9375V3.5625V15.9375V16.625H17.25H0.75H0.0625V15.9375V3.5625V2.875H0.75H6.33594C6.50781 2.27344 6.83724 1.78646 7.32422 1.41406ZM10.2031 2.875C9.97396 2.41667 9.57292 2.1875 9 2.1875C8.42708 2.1875 8.02604 2.41667 7.79688 2.875H10.2031ZM1.4375 4.25V10.4375H16.5625V4.25H1.4375ZM8.48438 8.58984C8.6276 8.44661 8.79948 8.375 9 8.375C9.20052 8.375 9.35807 8.44661 9.47266 8.58984C9.61589 8.70443 9.6875 8.86198 9.6875 9.0625C9.6875 9.26302 9.61589 9.4349 9.47266 9.57812C9.35807 9.69271 9.20052 9.75 9 9.75C8.79948 9.75 8.6276 9.69271 8.48438 9.57812C8.36979 9.4349 8.3125 9.26302 8.3125 9.0625C8.3125 8.86198 8.36979 8.70443 8.48438 8.58984ZM1.4375 11.8125V15.25H16.5625V11.8125H1.4375Z" fill="#778CA2"/>
</svg>
